<?xml version="1.0" standalone="no"?>
<!DOCTYPE svg PUBLIC "-//W3C//DTD SVG 1.0//EN" "http://www.w3.org/TR/2001/REC-SVG-20010904/DTD/svg10.dtd">
<svg xmlns="http://www.w3.org/2000/svg" xmlns:xlink="http://www.w3.org/1999/xlink" id="body_1" width="84" height="84">

<g transform="matrix(0.04375 0 0 0.04375 0 0)">
    <path d="M669.6 1604.1L309.09998 1376.1L216.99997 1221.7999L609.2999 1468.8999L669.6 1604.1z" stroke="none" fill="#FFFFFF" fill-rule="nonzero" />
    <path d="M1436.2 480.6L1270 412.3L1148.8 362.5C 1134.4 356.6 1119.1001 353.5 1103.6001 353.4C 946.3001 352.6 868.9001 477.09998 868.9001 477.09998L868.9001 477.09998L217 1221.8L609.4 1468.9L1300.4 680.10004C 1303.2001 676.80005 1306.1 673.50006 1309 670.30005C 1396.6 572.50006 1503.6 522.10004 1586 542.10004L1586 542.10004L1436.2 480.60004L1436.2 480.6zM1138.7999 685.8L1033.8999 803.6L807.2999 697.1L900 593.5L946 542.1L1184.4 634.5L1138.8 685.8z" stroke="none" fill="#FFFFFF" fill-rule="nonzero" />
    <path d="M946 542.1L900 593.5L807.3 697.1L1033.9 803.6L1138.8 685.8L1184.4 634.5L946 542.1z" stroke="none" fill="#FFFFFF" fill-rule="nonzero" />
    <path d="M1483.2 435.6L1436.2 480.6L1270 412.3L1339.8 357.09998C 1368.3 334.59998 1406.5 328.39996 1440.7001 340.89996L1440.7001 340.89996L1465.2001 349.89996C 1501.0001 362.99997 1510.7001 409.19995 1483.2001 435.59998L1483.2001 435.59998L1483.2 435.6z" stroke="none" fill="#FFFFFF" fill-rule="nonzero" />
    <path d="M1622.9 991C 1516.7001 1166.5 1345.5 1257.3 1240.4 1193.7C 1187.4 1161.7 1161.4 1096.5 1162.1 1017.39996L1162.1 1017.39996L1081.9 1114.1L669.7 1604L609.4 1468.9L1300.4 680.10004L1309 670.30005C 1396.6 572.50006 1503.6 522.10004 1586 542.10004L1586 542.10004L1624.8 558.00006C 1729.9 621.7001 1729.1001 815.50006 1622.9 991.00006L1622.9 991.00006L1622.9 991z" stroke="none" fill="#FFFFFF" fill-rule="nonzero" />
    <path d="M1240.3 1193.7L1081.8 1114.1L1162 1017.39996C 1161.3 1096.6 1187.4 1161.7 1240.3 1193.7z" stroke="none" fill="#FFFFFF" fill-rule="nonzero" />
	<g>
        <path d="M1309 670.3L1300.4 680.1C 1303.2001 676.8 1306.1 673.5 1309 670.3z" stroke="#231F20" stroke-width="50" stroke-linecap="square" fill="none" />
        <path d="M1240.3 1193.7L1081.8 1114.1L1162 1017.39996C 1161.3 1096.6 1187.4 1161.7 1240.3 1193.7z" stroke="#231F20" stroke-width="50" stroke-linecap="square" fill="none" />
        <path d="M216.9 1221.8L309.09998 1376.1001L669.6 1604.1001" stroke="#231F20" stroke-width="50" stroke-linecap="square" fill="none" />
        <path d="M1622.9 991C 1516.7001 1166.5 1345.5 1257.3 1240.4 1193.7C 1187.4 1161.7 1161.4 1096.5 1162.1 1017.39996L1162.1 1017.39996L1081.9 1114.1L669.7 1604L609.4 1468.9L1300.4 680.10004L1309 670.30005C 1396.6 572.50006 1503.6 522.10004 1586 542.10004L1586 542.10004L1624.8 558.00006C 1729.9 621.7001 1729.1001 815.50006 1622.9 991.00006L1622.9 991.00006L1622.9 991z" stroke="#231F20" stroke-width="50" stroke-linecap="square" fill="none" />
        <path d="M1309 670.3L1300.4 680.1C 1303.2001 676.8 1306.1 673.5 1309 670.3z" stroke="#231F20" stroke-width="50" stroke-linecap="square" fill="none" />
        <path d="M1624.8 558.1L1586 542.19995C 1599.6 545.49994 1612.6 550.7999 1624.8 558.1z" stroke="#231F20" stroke-width="50" stroke-linecap="square" fill="none" />
        <path d="M1184.4 634.6L1138.8 685.8L1033.9 803.7L807.30005 697.10004L900 593.5L946 542.1L1184.4 634.6z" stroke="#231F20" stroke-width="50" stroke-linecap="square" fill="none" />
        <path d="M1184.4 634.6L1138.8 685.8L1033.9 803.7L807.30005 697.10004L900 593.5L946 542.1L1184.4 634.6z" stroke="#231F20" stroke-width="50" stroke-linecap="square" fill="none" />
        <path d="M900.1 593.5C 948.3 610.8 1071.5 659.2 1138.7999 685.8" stroke="#231F20" stroke-width="50" stroke-linecap="square" fill="none" />
        <path d="M1436.2 480.6L1270 412.3L1148.8 362.5C 1134.4 356.6 1119.1001 353.5 1103.6001 353.4C 946.3001 352.6 868.9001 477.09998 868.9001 477.09998L868.9001 477.09998L217 1221.8L609.4 1468.9L1300.4 680.10004C 1303.2001 676.80005 1306.1 673.50006 1309 670.30005C 1396.6 572.50006 1503.6 522.10004 1586 542.10004L1586 542.10004L1436.2 480.60004L1436.2 480.6zM1138.7999 685.8L1033.8999 803.6L807.2999 697.1L900 593.5L946 542.1L1184.4 634.5L1138.8 685.8z" stroke="#231F20" stroke-width="50" stroke-linecap="square" fill="none" />
        <path d="M1483.2 435.6L1436.2 480.6L1270 412.3L1339.8 357.09998C 1368.3 334.59998 1406.5 328.39996 1440.7001 340.89996L1440.7001 340.89996L1465.2001 349.89996C 1501.0001 362.99997 1510.7001 409.19995 1483.2001 435.59998L1483.2001 435.59998L1483.2 435.6z" stroke="#231F20" stroke-width="50" stroke-linecap="square" fill="none" />
	</g>
</g>
</svg>